<?xml version="1.0" encoding="utf-8"?>
<!-- Generator: Adobe Illustrator 19.0.0, SVG Export Plug-In . SVG Version: 6.00 Build 0)  -->
<svg version="1.1" id="Layer_1" xmlns="http://www.w3.org/2000/svg" xmlns:xlink="http://www.w3.org/1999/xlink" x="0px" y="0px"
	 viewBox="0 0 500 500" style="enable-background:new 0 0 500 500;" xml:space="preserve">
<style type="text/css">
	.st0{fill:#26A69A;}
	.st1{display:none;fill:#9CCC65;}
	.st2{fill:#FFFFFF;}
</style>
<g id="About_Logomark_1_">
	<circle class="st0" cx="250" cy="250.3" r="212.7"/>
	<path class="st1" d="M301.5,16.5c0,0,16.6-115.5,115.5-115.5c42.3,0-13.7,49.6-44.7,73.8C330.7,7.1,301.5,16.5,301.5,16.5z"/>
	<g>
		<path class="st2" d="M288.7,327.7c-4.9,0-9.9-1.9-13.7-5.7c-7.6-7.6-7.6-19.8,0-27.3l44.3-44.3L275,206c-7.6-7.6-7.6-19.8,0-27.3
			c7.6-7.6,19.8-7.6,27.3,0l58,58c7.6,7.6,7.6,19.8,0,27.3l-58,58C298.6,325.8,293.6,327.7,288.7,327.7z"/>
		<path class="st2" d="M211.3,327.7c-4.9,0-9.9-1.9-13.7-5.7l-58-58c-7.6-7.6-7.6-19.8,0-27.3l58-58c7.6-7.6,19.8-7.6,27.3,0
			c7.6,7.6,7.6,19.8,0,27.3l-44.3,44.3l44.3,44.3c7.6,7.6,7.6,19.8,0,27.3C221.2,325.8,216.3,327.7,211.3,327.7z"/>
	</g>
</g>
</svg>
