<?xml version="1.0" encoding="utf-8"?>
<!-- Generator: Adobe Illustrator 19.0.0, SVG Export Plug-In . SVG Version: 6.00 Build 0)  -->
<svg version="1.1" id="Layer_1" xmlns="http://www.w3.org/2000/svg" xmlns:xlink="http://www.w3.org/1999/xlink" x="0px" y="0px"
	 viewBox="0 0 500 500" style="enable-background:new 0 0 500 500;" xml:space="preserve">
<style type="text/css">
	.st0{fill:#9575CD;}
	.st1{display:none;fill:#9CCC65;}
	.st2{fill:#FFFFFF;}
</style>
<g id="Themes_Logomark_1_">
	<circle class="st0" cx="250" cy="250.3" r="212.7"/>
	<path class="st1" d="M301.5,16.5c0,0,16.6-115.5,115.5-115.5c42.3,0-13.7,49.6-44.7,73.8C330.7,7.1,301.5,16.5,301.5,16.5z"/>
	<g>
		<path class="st2" d="M233.1,306.1c-7.4,0-13.4-6-13.4-13.4c0-1.5-0.3-2.9-0.9-4.3c-1.3-3.3-3.5-5.5-6.4-6.6c-1.8-0.8-3.2-1-4.7-1
			c-6.6,0-11.9,5.3-11.9,11.9c0,7.4-6,13.4-13.4,13.4s-13.4-6-13.4-13.4c0-21.4,17.4-38.8,38.8-38.8c5.2,0,10.2,1,14.8,3
			c9.4,3.6,17.3,11.5,21.1,21.4c1.8,4.3,2.9,9.3,2.9,14.4C246.5,300.1,240.5,306.1,233.1,306.1z"/>
		<path class="st2" d="M156.9,356.9c-7.4,0-13.4-6-13.4-13.4c0-7.4,6-13.4,13.4-13.4c34,0,62.7-17.1,62.7-37.3
			c0-7.4,6-13.4,13.4-13.4s13.4,6,13.4,13.4C246.5,328.7,207.2,356.9,156.9,356.9z"/>
		<path class="st2" d="M156.9,356.9c-7.4,0-13.4-6-13.4-13.4c0-7.4,6-13.4,13.4-13.4c2.8-0.6,11.9-13.1,11.9-37.3
			c0-7.4,6-13.4,13.4-13.4s39.5-2.8,39.5,4.6C221.8,320.5,179.1,356.9,156.9,356.9z"/>
		<path class="st2" d="M231.1,296.6c-1.1,0-2.1-0.1-3.2-0.4c-4.3-1-7.8-4.1-9.4-8.2c-1.1-2.8-3.3-5.1-6.2-6.2
			c-4.1-1.6-7.2-5.1-8.2-9.4c-1-4.3,0.1-8.8,3-12.1l95.1-106.7c13-13,32.9-12.4,44.7-0.5c6.1,6,9.4,13.8,9.4,22.1
			c0,8.4-3.2,16.2-9.2,22.2l-107.2,95.7C237.6,295.4,234.4,296.6,231.1,296.6z"/>
	</g>
</g>
</svg>
