<?xml version="1.0" encoding="utf-8"?>
<!-- Generator: Adobe Illustrator 19.0.0, SVG Export Plug-In . SVG Version: 6.00 Build 0)  -->
<svg version="1.1" id="Layer_1" xmlns="http://www.w3.org/2000/svg" xmlns:xlink="http://www.w3.org/1999/xlink" x="0px" y="0px"
	 viewBox="0 0 500 500" style="enable-background:new 0 0 500 500;" xml:space="preserve">
<style type="text/css">
	.st0{fill:#2196F3;}
	.st1{display:none;fill:#9CCC65;}
	.st2{fill:#FFFFFF;}
</style>
<g id="Beginners_Logomark">
	<circle class="st0" cx="250" cy="250.3" r="212.7"/>
	<path class="st1" d="M301.5,16.5c0,0,16.6-115.5,115.5-115.5c42.3,0-13.7,49.6-44.7,73.8C330.7,7.1,301.5,16.5,301.5,16.5z"/>
	<g>
		<path class="st2" d="M250,393.4c-6.9,0-13.3-3.7-16.8-9.7l-71.3-124.8C135.1,212,150,152.8,195.8,124.2
			c34.1-21.3,75.4-20.6,107.3-0.7c46.9,29.3,61.8,88.5,35,135.4l-71.3,124.8C263.3,389.7,256.9,393.4,250,393.4z M250,147
			c-11.5,0-22.8,3.2-32.6,9.3c-29.2,18.3-38.4,54.6-21.9,83.4l54.5,95.4l54.5-95.4c16.5-28.8,7.3-65.1-20.8-82.7
			C272.8,150.2,261.5,147,250,147z"/>
		<circle class="st2" cx="250" cy="199.2" r="27.7"/>
	</g>
</g>
</svg>
