<?xml version="1.0" encoding="utf-8"?>
<!-- Generator: Adobe Illustrator 19.0.0, SVG Export Plug-In . SVG Version: 6.00 Build 0)  -->
<svg version="1.1" id="Layer_1" xmlns="http://www.w3.org/2000/svg" xmlns:xlink="http://www.w3.org/1999/xlink" x="0px" y="0px"
	 viewBox="0 0 500 500" style="enable-background:new 0 0 500 500;" xml:space="preserve">
<style type="text/css">
	.st0{fill:#66BB6A;}
	.st1{fill:#FFFFFF;}
</style>
<g id="Install_Logomark_1_">
	<circle class="st0" cx="250" cy="250.3" r="212.7"/>
	<g>
		<path class="st1" d="M250,347c-4.9,0-9.9-1.9-13.7-5.7c-7.6-7.6-7.6-19.8,0-27.3l58-58c7.6-7.6,19.8-7.6,27.3,0s7.6,19.8,0,27.3
			l-58,58C259.9,345.1,254.9,347,250,347z"/>
		<path class="st1" d="M246,347c-4.9,0-9.9-1.9-13.7-5.7l-58-58c-7.6-7.6-7.6-19.8,0-27.3s19.8-7.6,27.3,0l58,58
			c7.6,7.6,7.6,19.8,0,27.3C255.9,345.1,250.9,347,246,347z"/>
		<path class="st1" d="M248,347c-10.7,0-21-8.6-21-19.3V173c0-10.7,10.3-19.3,21-19.3c10.7,0,21,8.6,21,19.3v154.7
			C269,338.3,258.7,347,248,347z"/>
	</g>
</g>
</svg>
